{
  "accessors": [
    {
      "bufferView": 2,
      "componentType": 5126,
      "count": 3788,
      "max": [
        6515.85693359375,
        3485.490234375,
        640.4472045898438
      ],
      "min": [
        -5489.88818359375,
        -3477.197509765625,
        169.6927032470703
      ],
      "type": "VEC3"
    },
    {
      "bufferView": 2,
      "byteOffset": 45456,
      "componentType": 5126,
      "count": 3788,
      "max": [
        0.11775760352611542,
        0.2653745114803314,
        0.9999974966049194
      ],
      "min": [
        -0.11775760352611542,
        -0.2653745114803314,
        -0.9999974966049194
      ],
      "type": "VEC3"
    },
    {
      "bufferView": 3,
      "componentType": 5126,
      "count": 3788,
      "max": [
        0.9999975562095642,
        0.00495131965726614,
        0.1179451122879982,
        1.0
      ],
      "min": [
        0.9930197596549988,
        -0.003771665273234248,
        -0.09137307107448578,
        -1.0
      ],
      "type": "VEC4"
    },
    {
      "bufferView": 1,
      "componentType": 5126,
      "count": 3788,
      "max": [
        0.9975064992904663,
        1.0
      ],
      "min": [
        -2.1395220317632635e-10,
        -3.978134088811203e-08
      ],
      "type": "VEC2"
    },
    {
      "bufferView": 0,
      "componentType": 5125,
      "count": 17808,
      "type": "SCALAR"
    }
  ],
  "asset": {
    "extras": {
      "author": "jimbogies (https://sketchfab.com/jimbogies)",
      "license": "CC-BY-4.0 (http://creativecommons.org/licenses/by/4.0/)",
      "source": "https://sketchfab.com/3d-models/road-terrain-7b4c7d514da54c0ca821e158f99761e3",
      "title": "Road Terrain"
    },
    "generator": "Sketchfab-15.36.0",
    "version": "2.0"
  },
  "bufferViews": [
    {
      "buffer": 0,
      "byteLength": 71232,
      "name": "floatBufferViews",
      "target": 34963
    },
    {
      "buffer": 0,
      "byteLength": 30304,
      "byteOffset": 71232,
      "byteStride": 8,
      "name": "floatBufferViews",
      "target": 34962
    },
    {
      "buffer": 0,
      "byteLength": 90912,
      "byteOffset": 101536,
      "byteStride": 12,
      "name": "floatBufferViews",
      "target": 34962
    },
    {
      "buffer": 0,
      "byteLength": 60608,
      "byteOffset": 192448,
      "byteStride": 16,
      "name": "floatBufferViews",
      "target": 34962
    }
  ],
  "buffers": [
    {
      "byteLength": 253056,
      "uri": "scene.bin"
    }
  ],
  "images": [
    {
      "uri": "textures/Terrain00_diffuse_baseColor.jpeg"
    },
    {
      "uri": "textures/Terrain00_diffuse_normal.png"
    }
  ],
  "materials": [
    {
      "name": "Terrain00_diffuse",
      "normalTexture": {
        "index": 1
      },
      "pbrMetallicRoughness": {
        "baseColorTexture": {
          "index": 0
        },
        "metallicFactor": 0.0
      }
    }
  ],
  "meshes": [
    {
      "name": "Material2",
      "primitives": [
        {
          "attributes": {
            "NORMAL": 1,
            "POSITION": 0,
            "TANGENT": 2,
            "TEXCOORD_0": 3
          },
          "indices": 4,
          "material": 0,
          "mode": 4
        }
      ]
    }
  ],
  "nodes": [
    {
      "children": [
        1
      ],
      "matrix": [
        1.0,
        0.0,
        0.0,
        0.0,
        0.0,
        2.220446049250313e-16,
        -1.0,
        0.0,
        0.0,
        1.0,
        2.220446049250313e-16,
        0.0,
        0.0,
        0.0,
        0.0,
        1.0
      ],
      "name": "Sketchfab_model"
    },
    {
      "children": [
        2,
        3
      ],
      "name": "Collada visual scene group"
    },
    {
      "mesh": 0,
      "name": "Material2"
    },
    {
      "children": [
        4
      ],
      "name": "SketchUp"
    },
    {
      "children": [
        5
      ],
      "matrix": [
        0.8382494,
        -0.545287,
        0.0,
        0.0,
        0.1790319,
        0.2752192,
        0.9445645,
        0.0,
        -0.5150587,
        -0.7917806,
        0.3283261,
        0.0,
        -4537.642,
        -3768.529,
        2130.047,
        1.0
      ],
      "name": "skp_camera_Last_Saved_SketchUp_View"
    },
    {
      "name": "ID1"
    }
  ],
  "samplers": [
    {
      "magFilter": 9729,
      "minFilter": 9987,
      "wrapS": 10497,
      "wrapT": 10497
    }
  ],
  "scene": 0,
  "scenes": [
    {
      "name": "Sketchfab_Scene",
      "nodes": [
        0
      ]
    }
  ],
  "textures": [
    {
      "sampler": 0,
      "source": 0
    },
    {
      "sampler": 0,
      "source": 1
    }
  ]
}
